<svg width="250" height="250" viewBox="0 0 250 250" fill="none" xmlns="http://www.w3.org/2000/svg">
<g clip-path="url(#clip0)">
<path d="M1.67786 127.255C1.67786 90.8456 2.349 71.047 3.35571 71.047C4.36242 71.047 5.03356 90.3423 5.03356 125.577V180.107H14.2617C19.2953 180.107 23.4899 180.946 23.4899 181.785C23.4899 182.792 18.792 183.463 12.5839 183.463H1.67786V127.255Z" fill="#4C545B"/>
<path d="M90.9396 141.181L91.443 98.7315L96.141 98.2282L100.671 97.7248V116.181V134.805H108.221H115.772V116.181V97.7248L120.47 98.2282L125 98.7315L125.503 141.181L125.839 183.463H120.805H115.772V164.168V144.872H108.221H100.671V164.168V183.463H95.6376H90.604L90.9396 141.181Z" fill="#4C545B"/>
<path d="M132.047 182.289C131.376 181.785 130.872 162.49 130.872 139.503V97.8926H135.906H140.94V140.678V183.463H137.081C134.899 183.463 132.55 182.96 132.047 182.289Z" fill="#4C545B"/>
<path d="M147.651 140.678V97.8926H152.685H157.718V135.644V173.396H167.785H177.852V178.43V183.463H162.752H147.651V140.678Z" fill="#4C545B"/>
<path d="M182.886 144.034C182.886 106.785 183.054 104.436 186.242 101.248C190.94 96.5503 205.034 96.5503 209.732 101.248C212.919 104.436 213.087 106.785 213.087 144.034V183.463H208.054H203.02V164.168V144.872H197.987H192.953V164.168V183.463H187.919H182.886V144.034ZM203.02 121.383V107.96H197.987H192.953V121.383V134.805H197.987H203.02V121.383Z" fill="#4C545B"/>
<path d="M223.154 180.107C220.47 177.423 219.799 174.57 219.799 164.168V151.584H224.832H229.866V162.49V173.396H234.899H239.933V158.295V143.195H233.221C221.98 143.195 219.799 139.503 219.799 120.544C219.799 100.913 221.812 97.8926 234.899 97.8926C245.638 97.8926 250 101.752 250 111.315C250 117.691 249.664 118.027 244.966 118.027C240.436 118.027 239.933 117.523 239.933 112.993C239.933 108.463 239.43 107.96 234.899 107.96H229.866V120.544V133.128H236.577C248.154 133.128 250 136.651 250 158.295C250 180.779 248.322 183.463 234.899 183.463C228.691 183.463 225.671 182.624 223.154 180.107Z" fill="#4C545B"/>
<path d="M6.71143 121.215V64L35.7383 64.6711C61.2416 65.1745 65.2685 65.5101 70.4698 68.698L76.3423 72.0537L76.8457 98.396L77.349 124.738L72.651 130.611C66.6108 137.993 62.5839 139.503 45.8054 140.174C35.4027 140.51 31.8792 140.174 31.8792 138.664C31.8792 136.987 35.9061 136.483 46.6443 136.483C54.698 136.483 62.4161 135.644 63.7584 134.638C65.7718 133.128 65.7718 132.96 63.255 133.799C61.5772 134.302 53.3557 134.805 45.1342 134.805H30.2014V156.617V178.43H18.4564H6.71143V121.215ZM53.6913 99.5705V77.7584H41.9463H30.2014V99.5705V121.383H41.9463H53.6913V99.5705Z" fill="#4C545B"/>
<path d="M48.3222 101.081L48.9933 82.2886L40.4363 83.1275C33.8926 83.7987 31.8792 83.4631 31.8792 81.7852C31.8792 80.1074 34.5638 79.4362 41.9463 79.4362H52.0134V99.5705C52.0134 114.503 51.5101 119.705 50 119.705C48.3222 119.705 47.9866 115.175 48.3222 101.081Z" fill="#4C545B"/>
<path d="M0 128.094C0 78.4295 0.335571 71.047 2.51678 71.047C4.69799 71.047 5.03356 78.2617 5.03356 125.577V180.107H14.2617C21.3087 180.107 23.4899 180.611 23.4899 182.624C23.4899 184.638 21.1409 185.141 11.745 185.141H0V128.094Z" fill="#A5363A"/>
<path d="M31.8792 139C31.8792 136.987 34.5638 136.483 46.1409 136.483C55.8725 136.483 62.2483 135.644 65.4362 133.966C68.6242 132.289 70.4698 132.121 70.4698 133.127C70.4698 134.134 67.2819 136.483 63.4228 138.161C54.1946 142.356 31.8792 142.859 31.8792 139Z" fill="#A5363A"/>
<path d="M46.9799 102.087V84.4698H39.4295C33.8926 84.4698 31.8792 83.7986 31.8792 81.953C31.8792 79.9396 34.0604 79.4362 41.9463 79.4362H52.0134V99.5704C52.0134 116.349 51.6779 119.705 49.4966 119.705C47.4832 119.705 46.9799 116.685 46.9799 102.087Z" fill="#A5363A"/>
</g>
<defs>
<clipPath id="clip0">
<rect width="250" height="250" fill="white"/>
</clipPath>
</defs>
</svg>
